{"title":"Medicine Man.avi","uid":6950378,"size":2702008564,"categoryP":"video","categoryS":"movies","magnet":"?xt=urn:btih:047b6d863b058a34ad78e5b35a57f6d29691e28b&amp;dn=Medicine+Man.avi&amp;tr=udp%3A%2F%2Ftracker.openbittorrent.com%3A80&amp;tr=udp%3A%2F%2Fopen.demonii.com%3A1337&amp;tr=udp%3A%2F%2Ftracker.coppersurfer.tk%3A6969&amp;tr=udp%3A%2F%2Fexodus.desync.com%3A6969","seeders":0,"leechers":1,"uploader":"sauron3denjerre","files":1,"time":1326379856,"description":"Verenigde Staten\nAvontuur / Romantiek\n106 minuten\n\ngeregisseerd door John McTiernan\nmet Sean Connery, Lorraine Bracco en JosÃƒÂ© Wilker\n\nEen blanke dokter - wonende in een Indianen gemeenschap als medicijnman in het regenwoud - \nslaagt er in een medicijn te maken tegen kanker. Hij vraagt dan ook dringend versterking aan zijn opdrachtgevers en\nkrijgt die ook in de vorm van een vrouwelijke botanica om een onbekend element in zijn medicijn tegen kanker te analyseren. \nDe tijd dringt want het regenwoud wordt met de minuut uitgedund en verwoest daarbij belangrijk materiaal om het serum tegen kanker te maken.\n\n\n\nGeneral\nComplete name                            : C:\\Users\\Jeroen\\Desktop\\Medicine Man.avi\nFormat                                   : AVI\nFormat/Info                              : Audio Video Interleave\nFormat profile                           : OpenDML\nFile size                                : 2.52 GiB\nDuration                                 : 1h 41mn\nOverall bit rate                         : 3 566 Kbps\nWriting application                      : MEncoder Sherpya-SVN-r27743-4.2.5\nWriting library                          : MPlayer\n\nVideo\nID                                       : 0\nFormat                                   : MPEG-4 Visual\nFormat profile                           : Advanced Simple@L5\nFormat settings, BVOP                    : 2\nFormat settings, QPel                    : No\nFormat settings, GMC                     : No warppoints\nFormat settings, Matrix                  : Default (H.263)\nCodec ID                                 : XVID\nCodec ID/Hint                            : XviD\nDuration                                 : 1h 41mn\nBit rate                                 : 3 426 Kbps\nWidth                                    : 720 pixels\nHeight                                   : 576 pixels\nDisplay aspect ratio                     : 5:4\nFrame rate                               : 25.000 fps\nStandard                                 : PAL\nColor space                              : YUV\nChroma subsampling                       : 4:2:0\nBit depth                                : 8 bits\nScan type                                : Progressive\nCompression mode                         : Lossy\nBits/(Pixel*Frame)                       : 0.330\nStream size                              : 2.42 GiB (96%)\nWriting library                          : XviD 1.1.2 (UTC 2006-11-01)\n\nAudio\nID                                       : 1\nFormat                                   : MPEG Audio\nFormat version                           : Version 1\nFormat profile                           : Layer 3\nCodec ID                                 : 55\nCodec ID/Hint                            : MP3\nDuration                                 : 1h 41mn\nBit rate mode                            : Constant\nBit rate                                 : 128 Kbps\nChannel(s)                               : 2 channels\nSampling rate                            : 48.0 KHz\nCompression mode                         : Lossy\nDelay relative to video                  : 40ms\nStream size                              : 92.5 MiB (4%)\nAlignment                                : Aligned on interleaves\nInterleave, duration                     : 24 ms (0.60 video frame)\nInterleave, preload duration             : 504 ms\n","torrent":{"xt":"urn:btih:047b6d863b058a34ad78e5b35a57f6d29691e28b","amp;dn":"Medicine+Man.avi","amp;tr":["udp%3A%2F%2Ftracker.openbittorrent.com%3A80","udp%3A%2F%2Fopen.demonii.com%3A1337","udp%3A%2F%2Ftracker.coppersurfer.tk%3A6969","udp%3A%2F%2Fexodus.desync.com%3A6969"],"infoHash":"047b6d863b058a34ad78e5b35a57f6d29691e28b","infoHashBuffer":{"type":"Buffer","data":[4,123,109,134,59,5,138,52,173,120,229,179,90,87,246,210,150,145,226,139]},"announce":[],"urlList":[]}}